<?xml version="1.0" encoding="utf-8"?>
<!-- Generator: Adobe Illustrator 25.0.1, SVG Export Plug-In . SVG Version: 6.00 Build 0)  -->
<svg version="1.1" id="图层_1" xmlns:serif="http://www.serif.com/"
	 xmlns="http://www.w3.org/2000/svg" xmlns:xlink="http://www.w3.org/1999/xlink" x="0px" y="0px" viewBox="0 0 1708.4 359.7"
	 style="enable-background:new 0 0 1708.4 359.7;" xml:space="preserve">
<style type="text/css">
	.st0{fill:#A0A0A0;}
	.st1{fill-rule:evenodd;clip-rule:evenodd;fill:#A0A0A0;}
	.st2{fill:#FFFFFF;}
	.st3{fill-rule:evenodd;clip-rule:evenodd;fill:#FFFFFF;}
	.st4{fill-rule:evenodd;clip-rule:evenodd;fill:#646567;}
	.st5{fill-rule:evenodd;clip-rule:evenodd;}
	.st6{fill-rule:evenodd;clip-rule:evenodd;fill:#9C9E9F;}
</style>
<g transform="matrix(4.16667,0,0,4.16667,4140.73,742.79)">
	<path class="st0" d="M-654.4-130.3h2.6c2.5,0,3.8,1.2,3.8,3.7c0,2.9-1.5,4-4.1,4h-2.3V-130.3z M-659.8-107.3h5.4v-11.4h2.9
		c2.2,0,3.1,1.3,3.2,3.4l0.1,5.2c0,1.1,0.2,2.1,0.7,2.8h5.9v-0.2c-1-0.5-1.2-2-1.2-4.8c-0.1-5.7-0.6-7.7-4.3-8.2v-0.1
		c3.1-0.6,4.5-3.1,4.5-6.6c0-4.6-2.7-6.9-7.2-6.9h-10L-659.8-107.3L-659.8-107.3z"/>
</g>
<g transform="matrix(4.16667,0,0,4.16667,3886.2,756.263)">
	<path class="st0" d="M-678.9-137.5v18.8c0,7.2,4.2,8.7,8.6,8.7c4.4,0,8.6-1.8,8.6-8.7v-18.8h-5.4v18.8c0,2.7-0.6,4.7-3.2,4.7
		c-2.5,0-3.2-2-3.2-4.7v-18.8H-678.9z"/>
</g>
<g transform="matrix(4.16667,0,0,4.16667,3941.35,754.688)">
	<path class="st0" d="M-673.6-137.1v27h5V-129h0.1l6.6,18.9h6.2v-27h-5v18.5h-0.1l-6.6-18.5H-673.6z"/>
</g>
<g transform="matrix(-4.16667,0,0,4.16667,5586.77,-1364.47)">
	<polygon class="st1" points="1043.8,398.4 1049.2,398.4 1049.2,398.4 	"/>
</g>
<g transform="matrix(4.16667,0,0,4.16667,4016.01,754.688)">
	<path class="st0" d="M-666.4-137.1l6.2,27h7l6.2-27h-5.6l-4,19.9h-0.1l-3.8-19.9H-666.4z"/>
</g>
<g transform="matrix(4.16667,0,0,4.16667,4075.04,754.688)">
	<path class="st0" d="M-660.7-137.1v27h15.4v-4.5h-10v-7.3h9.1v-4.5h-9.1v-6.3h9.6v-4.5h-15V-137.1z"/>
</g>
<g transform="matrix(4.16667,0,0,4.16667,4177.11,699.563)">
	<path class="st0" d="M-650.9-105.3v1.1c0,5,2.4,7.9,8.6,7.9c5.9,0,9.4-2.6,9.4-8.3c0-3.3-1.1-5.4-5.1-7.1l-4.2-1.8
		c-2.3-1-2.8-2-2.8-3.7c0-1.6,0.6-3.1,3.1-3.1c2.1,0,2.9,1.5,2.9,4h5.2v-0.8c0-5.2-3.5-7.3-8.3-7.3c-5.1,0-8.3,2.7-8.3,7.9
		c0,4.5,2.2,6.5,7.1,8.2c3.6,1.2,4.8,2.2,4.8,4.6c0,2.3-1.6,3.3-3.2,3.3c-2.9,0-3.6-1.6-3.6-4.2v-0.8h-5.6V-105.3z"/>
</g>
<g transform="matrix(-4.16667,0,0,4.16667,6054.41,-1364.47)">
	<polygon class="st1" points="1077.3,398.4 1082.7,398.4 1082.7,398.4 	"/>
</g>
<g transform="matrix(4.16667,0,0,4.16667,4332.7,754.688)">
	<path class="st0" d="M-635.9-137.1l-3.8,10.4h-0.1l-3.6-10.4h-20.1v4.5h5.9v22.5h5.4v-22.5h4.6l5.1,11.9v10.6h5.4v-10.6l7-16.4
		H-635.9z"/>
</g>
<g id="RWTH">
	<g transform="matrix(4.16667,0,0,4.16667,3744.17,586.718)">
		<path class="st2" d="M-692.6-99.3h-0.3h-8.7v-3.1v-23.8v-0.2h14.8c4,0,7.5,2.6,8.6,6c1,3.2,0.2,6.6-2.2,9.1
			c0.3,0.8,0.6,1.5,0.9,2.3c0.7,1.5,1.3,3,1.9,4.5l2.1,5.2h-0.1h-9.1c0,0-0.1-0.2-0.1-0.3c-0.4-0.8-0.7-1.7-1.1-2.5l-2.2-5.2
			c-0.9-2.1-1.7-4.1-2.6-6.2c1.1,0,1.9,0.2,3-0.3c0.7-0.4,1.9-1.3,1.9-3c0-0.9-0.3-1.5-0.8-2.2c-0.6-0.6-1.4-1.1-2.5-1.1h-3.5
			L-692.6-99.3L-692.6-99.3z"/>
	</g>
	<g transform="matrix(4.16667,0,0,4.16667,4024,667.231)">
		<path class="st2" d="M-665.6-145.7v27.1h-7h-2v-11h-0.8h-5.4h-0.1v11c-1.6,0-3.4,0-5,0h-4v-20.8h-6.3v20.8h-0.1h-8.9v-11.2v-0.4
			v-9.2h-6.4v20.8h-9.3c-1.6-3.9-3.3-7.8-4.9-11.7c-0.2-0.8-0.4-1.6-0.6-2.4v14.2h-9.3c-1.8-4.3-3.6-8.5-5.5-12.8
			c-0.6-1.5-1.2-2.7-1.8-4.3l-0.1-0.2l-1.4-3.4l-2.1-4.8c-0.2-0.5-0.5-1-0.7-1.6h9.3c1.9,4.6,3.8,9.2,5.8,13.8l0.1,0.1
			c-0.1-0.5-0.2-1.2-0.3-1.7v-8.1c0-1.3,0-2.8,0-4.1h9.3c0.1,0.3,0.2,0.5,0.3,0.7c1.1,2.6,2.1,5.1,3.2,7.6l2.4,5.5
			c-0.1-0.6-0.2-1.1-0.3-1.7v-12.2h36.5v9.8h6.3v-9.8L-665.6-145.7L-665.6-145.7z"/>
	</g>
</g>
<g id="AACHEN">
	<g transform="matrix(4.16667,0,0,4.16667,4119.64,667.232)">
		<path class="st0" d="M-656.4-145.7h-6.8l-5.7,21.3l-5.7-21.3h-6.8l-7.2,27.1h5.7l1.3-5.7h7.2l1.3,5.7h8.3l1.3-5.7h7.2l1.3,5.7h5.7
			L-656.4-145.7z M-680.5-128.8l2.6-12.2h0.1l2.6,12.2H-680.5z M-662.4-128.8l2.6-12.2h0.1l2.6,12.2H-662.4z"/>
	</g>
	<g transform="matrix(4.16667,0,0,4.16667,4189.33,640.222)">
		<path class="st0" d="M-649.7-129.9c0-3.9-0.6-9.6-8.3-9.6c-8.2,0-9.2,5.8-9.2,14s1,14,9.2,14c7.1,0,8.6-5,8.6-10.8h-5.4
			c0,5.8-1.4,6.8-3.4,6.8c-2.3,0-3.5-1.5-3.5-9.6c0-7.6,0.6-10.4,3.4-10.4c2.5,0,3.2,1.7,3.2,5.6H-649.7z"/>
	</g>
	<g transform="matrix(4.16667,0,0,4.16667,4193.19,586.705)">
		<path class="st0" d="M-649.3-99.3h5.5v-12h6.4v12h5.5v-27.1h-5.5v10.4h-6.4v-10.4h-5.5V-99.3z"/>
	</g>
	<g transform="matrix(4.16667,0,0,4.16667,4248.14,667.23)">
		<path class="st0" d="M-644-145.7v27.1h15.5v-4.5h-10.1v-7.3h9.1v-4.5h-9.1v-6.4h9.7v-4.5L-644-145.7L-644-145.7z"/>
	</g>
	<g transform="matrix(4.16667,0,0,4.16667,4296.69,667.232)">
		<path class="st0" d="M-639.4-145.7v27.1h5v-19h0.1l6.7,19h6.2v-27.1h-5v18.5h-0.1l-6.6-18.5L-639.4-145.7L-639.4-145.7z"/>
	</g>
</g>
<g id="vertical_slash" transform="matrix(4.16667,0,0,4.16667,2426.87,-1451.73)">
	<rect x="-405" y="362.8" class="st3" width="1.3" height="56.8"/>
</g>
<g transform="matrix(1.02732,0,0,1.02732,-3706.23,-1152.16)">
	<g transform="matrix(37.5,0,0,37.5,6762.98,1814.4)">
		<path class="st2" d="M-74.2-12.4L-74.2-12.4L-74.2-12.4c-0.1,0.1-0.1,0.1-0.2,0.1s-0.1,0-0.2-0.1c0-0.1-0.1-0.2-0.1-0.3
			s0-0.2,0.1-0.3c0-0.1,0.1-0.1,0.2-0.1h0.1c0,0,0,0,0.1,0.1l0,0v-0.3h0.2v1L-74.2-12.4L-74.2-12.4z M-74.4-12.7c0,0.1,0,0.1,0,0.2
			c0,0,0,0.1,0.1,0.1c0,0,0.1,0,0.1-0.1c0,0,0-0.1,0-0.2s0-0.1,0-0.2c0,0,0-0.1-0.1-0.1c0,0-0.1,0-0.1,0.1
			C-74.4-12.9-74.4-12.8-74.4-12.7z"/>
	</g>
	<g transform="matrix(37.5,0,0,37.5,6781.73,1814.4)">
		<path class="st2" d="M-74.2-12.7L-74.2-12.7c0,0.1,0,0.1,0,0.1s0,0,0,0.1l0,0l0,0h0.1v-0.1h0.2c0,0.1,0,0.2-0.1,0.2
			c0,0-0.1,0.1-0.2,0.1s-0.1,0-0.2,0l-0.1-0.1v-0.1v-0.1c0-0.1,0-0.1,0-0.1v-0.1l0.1-0.1c0,0,0.1,0,0.2,0s0.1,0,0.1,0s0.1,0,0.1,0.1
			v0.1c0,0,0,0.1,0,0.2l0,0h-0.2V-12.7z M-74-12.8C-74-12.9-74-12.9-74-12.8c0-0.1,0-0.1,0-0.1l0,0l0,0l0,0l0,0l0,0
			C-74-12.9-74-12.9-74-12.8L-74-12.8L-74-12.8z"/>
	</g>
	<g transform="matrix(37.5,0,0,37.5,6799.09,1814.4)">
		<path class="st2" d="M-74.1-12.6L-74.1-12.6c0,0.1,0,0.1,0,0.1s0,0,0.1,0h0.1c0,0,0,0,0-0.1c0,0,0,0,0-0.1l0,0L-74.1-12.6
			c-0.1-0.1-0.1-0.1-0.1-0.2v-0.1V-13v-0.1h0.1h0.1c0.1,0,0.2,0,0.2,0.1c0,0,0.1,0.1,0.1,0.2l0,0h-0.2v-0.1c0,0,0,0-0.1,0
			c0,0,0,0-0.1,0c0,0,0,0,0,0.1c0,0,0,0,0,0.1c0,0,0,0,0.1,0h0.1c0.1,0,0.1,0,0.1,0.1v0.1v0.1c0,0,0,0.1-0.1,0.1H-74h-0.1
			c-0.1,0-0.1,0-0.1,0h-0.1c0,0,0,0,0-0.1v-0.1l0,0h0.2V-12.6z"/>
	</g>
	<g transform="matrix(37.5,0,0,37.5,6815.74,1814.4)">
		<path class="st2" d="M-74-13.4h0.2v0.2H-74V-13.4z M-74-13.1h0.2v0.8H-74V-13.1z"/>
	</g>
	<g transform="matrix(37.5,0,0,37.5,6824.74,1814.4)">
		<path class="st2" d="M-73.7-12.7L-73.7-12.7c0,0.1,0,0.1,0,0.1l0,0c0,0,0,0,0.1,0s0,0,0.1,0l0,0c0,0,0,0,0-0.1v-0.1
			c0-0.1,0-0.2,0-0.2s0-0.1-0.1-0.1c0,0,0,0-0.1,0l0,0c0,0,0,0,0,0.1C-73.7-12.8-73.7-12.8-73.7-12.7z M-73.4-13.1v0.7
			c0,0.1,0,0.2-0.1,0.2c0,0-0.1,0.1-0.2,0.1s-0.1,0-0.2-0.1l-0.1-0.1h0.2c0,0,0,0,0,0.1l0,0l0,0h0.1v-0.1v-0.1l0,0
			c0,0,0,0.1-0.1,0.1h-0.1c-0.1,0-0.1,0-0.2-0.1c0-0.1-0.1-0.2-0.1-0.3v-0.1v-0.1c0,0,0-0.1,0.1-0.1h0.1h0.1c0,0,0.1,0,0.1,0.1l0,0
			V-13L-73.4-13.1L-73.4-13.1z"/>
	</g>
	<g transform="matrix(37.5,0,0,37.5,6843.49,1814.4)">
		<path class="st2" d="M-73.7-13.1h0.2v0.1l0,0c0,0,0-0.1,0.1-0.1h0.1c0.1,0,0.1,0,0.1,0.1c0,0,0,0.1,0,0.2v0.6h-0.2v-0.5v-0.1
			c0,0,0,0-0.1,0s-0.1,0-0.1,0.1v0.5h-0.2L-73.7-13.1L-73.7-13.1z"/>
	</g>
</g>
<g transform="matrix(1.02732,0,0,1.02732,-3706.23,-1109.69)">
	<g transform="matrix(37.5,0,0,37.5,6762.98,1814.4)">
		<path class="st2" d="M-74.2-12.4L-74.2-12.4c0-0.1,0-0.1,0-0.1l0,0l0,0c0,0,0,0-0.1,0l0,0C-74.3-12.5-74.3-12.5-74.2-12.4
			c-0.1,0.1-0.1,0.1-0.1,0.1v0.1v0.1l0,0c0,0,0,0,0.1,0h0.1v-0.1h0.2c0,0.1,0,0.2-0.1,0.2c0,0.1-0.1,0.1-0.2,0.1h-0.1
			c0,0-0.1,0-0.1-0.1c0,0,0-0.1-0.1-0.1c0-0.1,0-0.1,0-0.2c0-0.1,0-0.1,0-0.2c0-0.1,0-0.1,0.1-0.1l0.1-0.1h0.1c0.1,0,0.2,0,0.2,0.1
			s0.1,0.1,0.1,0.2H-74.2z"/>
	</g>
	<g transform="matrix(37.5,0,0,37.5,6780.34,1814.4)">
		<path class="st2" d="M-74.4-12.3c0-0.1,0-0.1,0-0.2c0,0,0-0.1,0.1-0.1l0.1-0.1h0.1c0.1,0,0.1,0,0.1,0s0.1,0,0.1,0.1v0.1
			c0,0.1,0,0.1,0,0.2c0,0.1,0,0.1,0,0.2c0,0,0,0.1-0.1,0.1l-0.1,0.1h-0.1c-0.1,0-0.1,0-0.1,0s-0.1,0-0.1-0.1s0-0.1,0-0.1
			C-74.4-12.2-74.4-12.2-74.4-12.3z M-74.2-12.3v0.1v0.1c0,0,0,0,0,0.1c0,0,0,0,0.1,0c0,0,0.1,0,0.1-0.1c0,0,0-0.1,0-0.2
			s0-0.2,0-0.2s0-0.1-0.1-0.1c0,0,0,0-0.1,0c0,0,0,0,0,0.1V-12.3L-74.2-12.3z"/>
	</g>
	<g transform="matrix(37.5,0,0,37.5,6798.34,1814.4)">
		<path class="st2" d="M-74.2-12.7h0.2v0.1l0,0l0.1-0.1h0.1h0.1l0.1,0.1l0,0c0,0,0-0.1,0.1-0.1h0.1c0.1,0,0.1,0,0.1,0.1
			c0,0,0,0.1,0,0.2v0.5h-0.2v-0.5v-0.1c0,0,0,0-0.1,0h-0.1v0.1v0.5h-0.2v-0.5v-0.1c0,0,0,0-0.1,0h-0.1v0.1v0.5h-0.2L-74.2-12.7
			L-74.2-12.7z"/>
	</g>
	<g transform="matrix(37.5,0,0,37.5,6826.77,1814.4)">
		<path class="st2" d="M-73.9-12.7h0.2v0.1l0,0c0,0,0-0.1,0.1-0.1h0.1c0.1,0,0.1,0,0.2,0.1c0,0.1,0.1,0.2,0.1,0.3s0,0.2-0.1,0.3
			c0,0.1-0.1,0.1-0.2,0.1h-0.1c0,0,0,0-0.1-0.1l0,0v0.3h-0.2V-12.7z M-73.7-12.3c0,0.1,0,0.1,0,0.2c0,0,0,0.1,0.1,0.1
			c0,0,0.1,0,0.1-0.1c0,0,0-0.1,0-0.2s0-0.1,0-0.2c0,0,0-0.1-0.1-0.1c0,0-0.1,0-0.1,0.1S-73.7-12.4-73.7-12.3z"/>
	</g>
	<g transform="matrix(37.5,0,0,37.5,6845.52,1814.4)">
		<path class="st2" d="M-73.3-12L-73.3-12C-73.3-12-73.4-11.9-73.3-12c-0.1,0.1-0.2,0.1-0.2,0.1c-0.1,0-0.1,0-0.1-0.1
			c0,0-0.1-0.1-0.1-0.2v-0.6h0.2v0.5v0.1c0,0,0,0,0.1,0s0.1,0,0.1-0.1v-0.5h0.2v0.8H-73.3L-73.3-12z"/>
	</g>
	<g transform="matrix(37.5,0,0,37.5,6864.27,1814.4)">
		<path class="st2" d="M-73.5-12.9h0.2v0.2h0.1v0.1h-0.1v0.4v0.1c0,0,0,0,0.1,0l0,0l0,0v0.1c0,0,0,0-0.1,0c0,0,0,0-0.1,0h-0.1
			c0,0,0,0-0.1,0c0,0,0,0,0-0.1s0-0.1,0-0.1v-0.4h-0.1v-0.1h0.1L-73.5-12.9L-73.5-12.9z"/>
	</g>
	<g transform="matrix(37.5,0,0,37.5,6875.37,1814.4)">
		<path class="st2" d="M-73.4-12.4L-73.4-12.4c0-0.1,0-0.1,0-0.1s0-0.1,0.1-0.1h0.1h0.1c0.1,0,0.1,0,0.1,0h0.1c0,0,0,0,0,0.1v0.1
			v0.4v0.1c0,0,0,0,0,0.1H-73l0,0l0,0l0,0c0,0,0,0.1-0.1,0.1h-0.1h-0.1c0,0,0,0-0.1-0.1s0,0,0-0.1V-12v-0.1c0,0,0,0,0-0.1
			c0,0,0,0,0.1,0h0.1h0.1c0,0,0,0,0.1,0c0,0,0,0,0-0.1v-0.1c0,0,0,0-0.1,0h-0.1c0,0,0,0,0,0.1l0,0L-73.4-12.4L-73.4-12.4z M-73-12.3
			C-73-12.3-73.1-12.3-73-12.3C-73.1-12.3-73.1-12.3-73-12.3c-0.1,0-0.1,0.1-0.2,0.1c0,0,0,0,0,0.1v0.1c0,0,0,0,0.1,0l0,0l0,0l0,0
			c0,0,0,0,0-0.1L-73-12.3L-73-12.3z"/>
	</g>
	<g transform="matrix(37.5,0,0,37.5,6893.4,1814.4)">
		<path class="st2" d="M-73.1-12.9h0.2v0.2h0.1v0.1H-73v0.4v0.1c0,0,0,0,0.1,0l0,0l0,0v0.1c0,0,0,0-0.1,0c0,0,0,0-0.1,0h-0.1
			c0,0,0,0-0.1,0c0,0,0,0,0-0.1s0-0.1,0-0.1v-0.4h-0.1v-0.1h0.1v-0.2H-73.1z"/>
	</g>
	<g transform="matrix(37.5,0,0,37.5,6904.5,1814.4)">
		<path class="st2" d="M-73.1-12.9h0.2v0.2h-0.2V-12.9z M-73.1-12.7h0.2v0.8h-0.2V-12.7z"/>
	</g>
	<g transform="matrix(37.5,0,0,37.5,6913.5,1814.4)">
		<path class="st2" d="M-73-12.3c0-0.1,0-0.1,0-0.2c0,0,0-0.1,0.1-0.1l0.1-0.1h0.1c0.1,0,0.1,0,0.1,0s0.1,0,0.1,0.1v0.1
			c0,0.1,0,0.1,0,0.2c0,0.1,0,0.1,0,0.2c0,0,0,0.1-0.1,0.1l-0.1,0.1h-0.1c-0.1,0-0.1,0-0.1,0s-0.1,0-0.1-0.1v-0.1
			C-73-12.2-73-12.2-73-12.3z M-72.8-12.3v0.1v0.1c0,0,0,0,0,0.1c0,0,0,0,0.1,0c0,0,0.1,0,0.1-0.1c0,0,0-0.1,0-0.2s0-0.2,0-0.2
			s0-0.1-0.1-0.1c0,0,0,0-0.1,0c0,0,0,0,0,0.1V-12.3L-72.8-12.3z"/>
	</g>
	<g transform="matrix(37.5,0,0,37.5,6931.5,1814.4)">
		<path class="st2" d="M-72.8-12.7h0.2v0.1l0,0c0,0,0-0.1,0.1-0.1h0.1c0.1,0,0.1,0,0.1,0.1c0,0,0,0.1,0,0.2v0.6h-0.2v-0.5v-0.1
			c0,0,0,0-0.1,0s-0.1,0-0.1,0.1v0.5h-0.2L-72.8-12.7L-72.8-12.7z"/>
	</g>
</g>
<g id="Logo_curves" transform="matrix(0.691926,0,0,2.32495,872.567,0.18534)">
	<g transform="matrix(2.56609,0,0,0.763694,2304.65,-206.977)">
		<path class="st4" d="M-1346.2,384.3h-16.7c0.2-4.1,1.2-7.6,2.9-10.3c1.7-2.7,3.9-4.9,6.6-6.6s5.6-2.8,8.9-3.5s6.7-1.1,10.1-1.1
			c3.1,0,6.2,0.2,9.3,0.7c3.1,0.5,6,1.3,8.6,2.7c1.1,0.6,2.1,1.2,3,2c-2.7,4.8-4.9,10.1-6.6,15.8c-3,9.9-4.5,20.7-4.5,32.3l0.3,6.9
			c-2.5,2.6-5.4,4.4-8.8,5.5c-3.6,1.2-7.3,1.8-11.1,1.8c-2.9,0-5.6-0.4-8.1-1.2c-2.5-0.8-4.7-2-6.6-3.5c-1.9-1.6-3.4-3.6-4.4-6
			c-1.1-2.4-1.6-5.3-1.6-8.6c0-3.6,0.6-6.6,1.8-9s2.7-4.2,4.7-5.6s4.2-2.5,6.7-3.2s5-1.3,7.6-1.7c2.6-0.4,5.1-0.7,7.4-1
			c2.4-0.2,4.5-0.6,6.3-1.1s3.3-1.2,4.4-2.2s1.6-2.3,1.6-4.2c0-1.9-0.3-3.4-0.9-4.5s-1.4-2-2.4-2.6s-2.1-1-3.4-1.2s-2.7-0.3-4.2-0.3
			c-3.2,0-5.8,0.7-7.7,2.2C-1344.8,378.3-1345.9,380.7-1346.2,384.3z M-1324.3,397.3c-0.7,0.7-1.6,1.2-2.6,1.6
			c-1.1,0.4-2.2,0.7-3.4,0.9c-1.2,0.2-2.5,0.5-3.9,0.6s-2.7,0.4-3.9,0.6c-1.3,0.2-2.6,0.6-3.8,1c-1.2,0.4-2.2,1-3.1,1.7
			s-1.6,1.6-2.2,2.7c-0.5,1.1-0.8,2.5-0.8,4c0,1.7,0.3,3,0.8,4s1.3,1.9,2.2,2.5c0.9,0.6,2,1.1,3.3,1.3c1.3,0.2,2.6,0.4,3.9,0.4
			c3.3,0,5.8-0.6,7.7-1.7c1.8-1.2,3.1-2.5,4-4.2c0.9-1.6,1.4-3.2,1.6-4.9c0.2-1.7,0.3-3,0.3-4L-1324.3,397.3L-1324.3,397.3z"/>
	</g>
	<g transform="matrix(0.643689,0,0,0.21622,2847.55,111.464)">
		<path class="st5" d="M-6095.9-515.9h426v292.8c-5.9-5.9-12.3-11.4-19.1-16.5c-22.3-16.7-47.9-29.2-76.6-37.3
			c-28.8-8.2-58.7-12.3-89.8-12.3c-42.6,0-80.5,7.2-113.7,21.5s-61.2,34.3-84.3,59.9c-23,25.6-40.4,55.9-52.3,91.1
			s-17.8,73.2-17.8,114.1c0,39.6,6.4,75.9,19.3,109s30.8,61.7,53.8,85.9l5.1,4.8h-337.5v-403.7c3,5.3,6.4,10.2,10.1,14.8
			c11.2,14.2,25.4,25.5,42.5,33.9c17.1,8.5,37.3,12.7,60.5,12.7c19.7,0,37.6-3.5,53.7-10.5c16-6.9,28.9-18,39-33.6h1.2v36.4h79.7
			v-363H-6095.9z"/>
	</g>
	<g transform="matrix(0.643689,0,0,0.21622,2847.55,111.464)">
		<path class="st5" d="M-6176.8-296.4c0-11.4-1.2-22.6-3.5-33.6c-2.4-11-6.4-20.7-12.1-29s-13.2-15-22.4-20.1
			c-9.3-5.1-20.6-7.7-34-7.7c-13.8,0-25.4,2.6-34.8,7.7c-9.5,5.1-17,11.9-22.7,20.4s-9.8,18.1-12.4,29c-2.6,10.8-3.8,22.2-3.8,33.9
			c0,11,1.4,22.1,4.1,33.1c2.8,11,7.2,20.9,13.3,29.5c6.1,8.6,13.8,15.6,23,21c9.3,5.3,20.4,8,33.4,8c13.8,0,25.3-2.6,34.6-7.7
			c9.3-5.1,16.6-12,22.1-20.7c5.5-8.6,9.5-18.5,11.8-29.5C-6178-273.2-6176.8-284.6-6176.8-296.4z"/>
	</g>
	<g transform="matrix(0.643689,0,0,0.21622,2847.55,111.464)">
		<path class="st5" d="M-6179.8-515.9v112.5h-1.2c-9.5-14-22.3-24.5-38.7-31.7c-16.3-7.2-33.6-10.8-51.7-10.8
			c-22.4,0-42.1,4.1-59.1,12.4c-16.9,8.3-31,19.2-42.2,32.8c-3.7,4.5-7.1,9.2-10.1,14.3v-129.5H-6179.8z"/>
	</g>
	<g transform="matrix(2.56609,0,0,0.763694,2304.65,-206.977)">
		<path class="st3" d="M-1317.6,373.7h-20v-10.3h-0.3c-2.5,4.4-5.8,7.6-9.8,9.5c-4,2-8.5,3-13.5,3c-5.8,0-10.9-1.2-15.2-3.6
			c-4.3-2.4-7.9-5.6-10.7-9.6c-0.9-1.3-1.8-2.7-2.5-4.2v-50.9c0.8-1.4,1.6-2.8,2.5-4c2.8-3.9,6.3-6.9,10.6-9.3
			c4.2-2.3,9.2-3.5,14.8-3.5c4.5,0,8.9,1,13,3s7.3,5,9.7,9h0.3v-31.9h21L-1317.6,373.7L-1317.6,373.7z M-1337.9,333.1
			c0-3.2-0.3-6.4-0.9-9.5s-1.6-5.9-3-8.2c-1.4-2.3-3.3-4.2-5.6-5.7c-2.3-1.5-5.2-2.2-8.5-2.2c-3.5,0-6.4,0.7-8.7,2.2
			c-2.4,1.5-4.3,3.4-5.7,5.8c-1.4,2.4-2.5,5.1-3.1,8.2s-1,6.3-1,9.6c0,3.1,0.3,6.2,1,9.4c0.7,3.1,1.8,5.9,3.3,8.4
			c1.5,2.4,3.5,4.4,5.8,5.9s5.1,2.3,8.4,2.3c3.5,0,6.3-0.7,8.7-2.2c2.3-1.5,4.2-3.4,5.6-5.9c1.4-2.4,2.4-5.2,3-8.4
			C-1338.2,339.6-1337.9,336.4-1337.9,333.1z"/>
	</g>
	<g transform="matrix(2.56609,0,0,0.763694,2304.65,-206.977)">
		<path class="st4" d="M-1346.2,384.3h-16.7c0.2-4.1,1.2-7.6,2.9-10.3c1.7-2.7,3.9-4.9,6.6-6.6s5.6-2.8,8.9-3.5s6.7-1.1,10.1-1.1
			c3.1,0,6.2,0.2,9.3,0.7c3.1,0.5,6,1.3,8.6,2.7c1.1,0.6,2.1,1.2,3,2c-2.7,4.8-4.9,10.1-6.6,15.8c-3,9.9-4.5,20.7-4.5,32.3l0.3,6.9
			c-2.5,2.6-5.4,4.4-8.8,5.5c-3.6,1.2-7.3,1.8-11.1,1.8c-2.9,0-5.6-0.4-8.1-1.2c-2.5-0.8-4.7-2-6.6-3.5c-1.9-1.6-3.4-3.6-4.4-6
			c-1.1-2.4-1.6-5.3-1.6-8.6c0-3.6,0.6-6.6,1.8-9s2.7-4.2,4.7-5.6s4.2-2.5,6.7-3.2s5-1.3,7.6-1.7c2.6-0.4,5.1-0.7,7.4-1
			c2.4-0.2,4.5-0.6,6.3-1.1s3.3-1.2,4.4-2.2s1.6-2.3,1.6-4.2c0-1.9-0.3-3.4-0.9-4.5s-1.4-2-2.4-2.6s-2.1-1-3.4-1.2s-2.7-0.3-4.2-0.3
			c-3.2,0-5.8,0.7-7.7,2.2C-1344.8,378.3-1345.9,380.7-1346.2,384.3z M-1324.3,397.3c-0.7,0.7-1.6,1.2-2.6,1.6
			c-1.1,0.4-2.2,0.7-3.4,0.9c-1.2,0.2-2.5,0.5-3.9,0.6s-2.7,0.4-3.9,0.6c-1.3,0.2-2.6,0.6-3.8,1c-1.2,0.4-2.2,1-3.1,1.7
			s-1.6,1.6-2.2,2.7c-0.5,1.1-0.8,2.5-0.8,4c0,1.7,0.3,3,0.8,4s1.3,1.9,2.2,2.5c0.9,0.6,2,1.1,3.3,1.3c1.3,0.2,2.6,0.4,3.9,0.4
			c3.3,0,5.8-0.6,7.7-1.7c1.8-1.2,3.1-2.5,4-4.2c0.9-1.6,1.4-3.2,1.6-4.9c0.2-1.7,0.3-3,0.3-4L-1324.3,397.3L-1324.3,397.3z"/>
	</g>
	<g transform="matrix(126.39,0,0,39.6431,3161.43,287.404)">
		<path class="st6" d="M-33.5-5.9h-0.2V-6c0,0,0-0.1,0.1-0.1h0.1h0.1h0.1h0.1c0,0,0.1,0,0.1,0.1v0.1v0.1c-0.1,0-0.1,0.1-0.2,0.1l0,0
			l0,0l0,0l0,0l0,0l0,0l0,0l0,0l0,0l0,0l0,0l0,0l0,0c0,0,0,0.1-0.1,0.1c0,0,0,0-0.1,0h-0.1v-0.1v-0.1C-33.6-5.8-33.6-5.8-33.5-5.9
			L-33.5-5.9C-33.5-5.8-33.5-5.8-33.5-5.9C-33.4-5.8-33.4-5.8-33.5-5.9l0.2,0.1c0,0,0,0,0.1,0l0,0c0,0,0,0,0-0.1l0,0l0,0
			c0,0,0,0-0.1,0C-33.4-6-33.4-6-33.5-5.9C-33.4-5.9-33.4-5.9-33.5-5.9z"/>
	</g>
	<g transform="matrix(0.643689,0,0,0.21622,2847.55,111.464)">
		<path class="st5" d="M-5669.9,51.5h-74.9c-4.7,32.7-16.6,58.8-35.5,78.3c-18.9,19.4-45.3,29.2-79.2,29.2
			c-22.3,0-41.3-5.1-56.8-15.3c-15.6-10.2-27.9-23.4-37.1-39.4c-9.1-16-15.7-33.9-19.8-53.7c-4.1-19.8-6.1-39.2-6.1-58.3
			s2-38.9,6.1-59.3c4.1-20.5,11-39,20.8-55.8c9.8-16.7,22.5-30.4,38.1-40.9c15.6-10.6,34.9-15.9,57.9-15.9
			c61.6,0,97.1,30.4,106.6,91.1h80v140H-5669.9z"/>
	</g>
	<g transform="matrix(0.632755,0,0,0.212547,2852.96,114.136)">
		<path class="st3" d="M-6159.6,179.4l-5.1-4.8c-23-24.2-40.9-52.8-53.8-85.9s-19.3-69.4-19.3-109c0-40.9,5.9-78.9,17.8-114.1
			s29.3-65.5,52.3-91.1s51.1-45.5,84.3-59.9c33.2-14.3,71.1-21.5,113.7-21.5c31.1,0,61.1,4.1,89.8,12.3
			c28.8,8.2,54.3,20.6,76.6,37.3c6.8,5.1,13.2,10.6,19.1,16.5v134.4h-80c-9.5-60.7-45-91.1-106.6-91.1c-23,0-42.3,5.3-57.9,15.9
			c-15.6,10.6-28.3,24.2-38.1,40.9c-9.8,16.7-16.7,35.3-20.8,55.8c-4.1,20.5-6.1,40.2-6.1,59.3s2,38.5,6.1,58.3s10.7,37.7,19.8,53.7
			c9.1,16,21.5,29.2,37.1,39.4s34.5,15.3,56.8,15.3c33.8,0,60.2-9.7,79.2-29.2c19-19.4,30.8-45.5,35.5-78.3h74.9V179l-0.3,0.4
			H-6159.6z"/>
	</g>
</g>
<rect x="1215.2" y="183" class="st1" width="22.5" height="112.5"/>
<rect x="1542.9" y="183" class="st1" width="22.5" height="112.5"/>
</svg>
