<svg width="508" height="116" viewBox="0 0 508 116" fill="none" xmlns="http://www.w3.org/2000/svg">
<g style="mix-blend-mode:difference" filter="url(#filter0_d_1_6)">
<path d="M414.877 60.3653H418.125C421.23 60.3653 422.903 61.9421 422.903 65.0957C422.903 68.7734 421.038 70.2062 417.742 70.2062H414.877V60.3653ZM407.998 89.4114H414.877V74.9841H418.554C421.325 74.9841 422.52 76.6084 422.617 79.284L422.807 85.8287C422.854 87.1649 422.998 88.4552 423.666 89.4114H431.118V89.1248C429.83 88.4552 429.638 86.5934 429.59 83.0107C429.495 75.7963 428.778 73.2157 424.097 72.5951V72.5002C427.966 71.688 429.782 68.6309 429.782 64.092C429.782 58.2629 426.342 55.3008 420.704 55.3008H407.998V89.4114Z" fill="#909698"/>
<path d="M306.575 55.3008V79.0892C306.575 88.2145 311.877 90.0795 317.467 90.0795C323.056 90.0795 328.359 87.7871 328.359 79.0892V55.3008H321.48V79.0892C321.48 82.4819 320.667 85.015 317.467 85.015C314.264 85.015 313.454 82.4819 313.454 79.0892V55.3008H306.575Z" fill="#909698"/>
<path d="M330.039 55.3008V89.4082H336.347V65.5232H336.44L344.85 89.4082H352.685V55.3008H346.377V78.6602H346.284L337.971 55.3008H330.039Z" fill="#909698"/>
<path d="M361.333 55.3008H354.454V89.4082H361.333V55.3008Z" fill="#909698"/>
<path d="M361.804 55.3008L369.638 89.4082H378.476L386.31 55.3008H379.192L374.129 80.5252H373.987L369.161 55.3008H361.804Z" fill="#909698"/>
<path d="M386.922 55.3008V89.4082H406.462V83.7722H393.801V74.601H405.268V68.9618H393.801V60.9384H405.984V55.3008H386.922Z" fill="#909698"/>
<path d="M430.352 78.754V80.1392C430.352 86.4465 433.407 90.0767 441.195 90.0767C448.647 90.0767 453.043 86.828 453.043 79.612C453.043 75.4563 451.705 72.8298 446.544 70.5833L441.242 68.2925C438.329 67.0497 437.707 65.7595 437.707 63.657C437.707 61.6528 438.521 59.6912 441.625 59.6912C444.252 59.6912 445.35 61.5546 445.35 64.7573H451.943V63.7995C451.943 57.2548 447.5 54.6299 441.385 54.6299C434.889 54.6299 430.828 58.021 430.828 64.6592C430.828 70.3458 433.648 72.8789 439.76 74.9797C444.299 76.5565 445.876 77.7012 445.876 80.8073C445.876 83.6744 443.87 85.0122 441.768 85.0122C438.136 85.0122 437.229 82.9588 437.229 79.7561V78.754H430.352Z" fill="#909698"/>
<path d="M460.823 55.3008H453.944V89.4082H460.823V55.3008Z" fill="#909698"/>
<path d="M496.547 55.3008L491.769 68.4837H491.674L487.184 55.3008H461.717V60.9384H469.169V89.4082H476.05V60.9384H481.852L488.281 75.9863V89.4082H495.161V75.9863L504 55.3008H496.547Z" fill="#909698"/>
<path d="M246.144 52.1887H234.744V17.9277H253.436C258.507 17.9262 262.877 21.208 264.305 25.5585C265.625 29.5892 264.496 33.9682 261.515 37.0855C261.911 38.1588 262.297 38.9995 262.666 39.9636C263.492 41.8713 264.251 43.779 265.077 45.663L267.791 52.1887H256.231C256.231 52.1951 256.14 51.9133 256.048 51.7977C255.589 50.7876 255.173 49.7064 254.714 48.6963L251.934 42.1009C250.83 39.4349 249.729 36.9161 248.625 34.2516C250.002 34.2136 251.03 34.4717 252.358 33.8606C253.294 33.4015 254.708 32.26 254.746 30.0705C254.708 28.9861 254.408 28.1644 253.691 27.3095C252.971 26.5148 251.928 25.9258 250.571 25.9068C250.571 25.9068 246.143 25.9052 246.144 25.9068V52.1887Z" fill="white"/>
<path d="M365.205 17.9277V52.1887H353.807V38.2174H345.826V52.1887C343.759 52.1887 341.529 52.165 339.462 52.1887H334.427V25.8546H326.456V52.1887H315.056V25.8546H307.015V52.1887H295.273C293.228 47.2493 291.068 42.2624 289.069 37.3451C288.839 36.3097 288.61 35.2759 288.31 34.2643V52.1887H276.544C274.214 46.7649 271.972 41.4502 269.647 35.9472C268.841 34.0426 268.181 32.4912 267.348 30.509L267.234 30.2494L265.423 25.9986L262.83 19.9273C262.603 19.2386 262.234 18.6164 262.003 17.9277H273.742C276.155 23.787 278.59 29.5766 281.118 35.344L281.188 35.4817C281.096 34.8152 280.887 33.9651 280.773 33.3239V23.0983C280.795 21.4645 280.773 19.6043 280.773 17.9277H292.537C292.686 18.2998 292.769 18.5024 292.883 18.8016C294.261 22.0408 295.572 25.2561 296.951 28.4747L300.03 35.4817C299.961 34.7471 299.799 34.0347 299.707 33.3239V17.9277H345.826V30.2906H353.807V17.9277H365.205Z" fill="white"/>
<path d="M405.903 17.9277H397.36L390.211 44.9347L383.06 17.9277H374.519L365.447 52.1919H372.646L374.229 44.9442H383.351L384.933 52.1919H395.488L397.072 44.9442H406.191L407.774 52.1919H414.973L405.903 17.9277ZM375.432 39.2813L378.743 23.8772H378.838L382.148 39.2813H375.432ZM398.272 39.2813L401.584 23.8772H401.679L404.991 39.2813H398.272Z" fill="#909698"/>
<path d="M435.55 29.6134C435.55 24.647 434.834 17.4326 424.99 17.4326C414.673 17.4326 413.383 24.7879 413.383 35.1544C413.383 45.5225 414.673 52.8794 424.99 52.8794C434.019 52.8794 435.835 46.5246 435.835 39.1677H428.958C428.958 46.5246 427.14 47.8149 424.656 47.8149C421.696 47.8149 420.261 45.9531 420.261 35.6341C420.261 25.9832 421.074 22.4955 424.561 22.4955C427.666 22.4955 428.669 24.647 428.669 29.6134H435.55Z" fill="#909698"/>
<path d="M437.198 52.1887H444.107V36.9778H452.169V52.1887H459.079V17.9277H452.169V31.0283H444.107V17.9277H437.198V52.1887Z" fill="#909698"/>
<path d="M460.575 17.9277V52.1951H480.207V46.5321H467.488V37.3166H479.007V31.6537H467.488V23.5907H479.726V17.9277H460.575Z" fill="#909698"/>
<path d="M481.227 17.9277V52.1887H487.561V28.1961H487.658L496.104 52.1887H503.972V17.9277H497.638V41.3916H497.543L489.192 17.9277H481.227Z" fill="#909698"/>
<path d="M213.095 17.8799H211.511V89.6853H213.095V17.8799Z" fill="white"/>
<path d="M116.931 82.2031C116.931 81.7914 116.903 81.3513 116.844 80.8811C116.785 80.4109 116.641 79.974 116.409 79.5671C116.176 79.1602 115.826 78.8262 115.356 78.5618C114.886 78.2974 114.244 78.166 113.432 78.166C112.577 78.166 111.897 78.3117 111.39 78.6014C110.883 78.8911 110.496 79.2948 110.226 79.8125C109.957 80.3318 109.783 80.9492 109.704 81.6727C109.625 82.3962 109.585 83.1846 109.585 84.0395C109.585 84.8944 109.625 85.6828 109.704 86.4063C109.783 87.1314 109.957 87.7488 110.226 88.2665C110.496 88.7842 110.883 89.1879 111.39 89.4776C111.897 89.7689 112.577 89.913 113.432 89.913C114.181 89.913 114.791 89.7911 115.261 89.5489C115.731 89.3082 116.095 88.9774 116.353 88.5594C116.611 88.143 116.789 87.6602 116.884 87.1108C116.979 86.5615 117.026 85.982 117.026 85.3694H114.746C114.746 85.982 114.71 86.4744 114.636 86.8496C114.561 87.2248 114.461 87.5161 114.335 87.7219C114.208 87.9262 114.058 88.0639 113.884 88.132C113.709 88.2 113.523 88.2349 113.322 88.2349C113.079 88.2349 112.866 88.1858 112.68 88.0845C112.495 87.9863 112.343 87.79 112.221 87.4987C112.099 87.209 112.011 86.8005 111.952 86.2733C111.894 85.7462 111.865 85.0527 111.865 84.1978C111.865 83.3952 111.886 82.7176 111.928 82.1635C111.971 81.6094 112.044 81.1613 112.15 80.8178C112.256 80.4743 112.4 80.2273 112.585 80.0737C112.771 79.9202 113.005 79.8442 113.29 79.8442C113.808 79.8442 114.164 80.031 114.358 80.4062C114.553 80.7814 114.651 81.3814 114.651 82.2031H116.931ZM118.277 87.3958C118.381 87.9546 118.562 88.4248 118.815 88.8048C119.068 89.1848 119.41 89.4666 119.844 89.6518C120.276 89.837 120.819 89.9241 121.475 89.913C122.097 89.913 122.622 89.8149 123.05 89.6201C123.477 89.427 123.823 89.1404 124.087 88.7668C124.35 88.39 124.54 87.9246 124.657 87.3641C124.772 86.8053 124.831 86.1609 124.831 85.4327C124.831 84.6934 124.777 84.0427 124.673 83.4775C124.567 82.9123 124.388 82.4421 124.134 82.0606C123.881 81.6806 123.538 81.3988 123.105 81.2136C122.672 81.0284 122.129 80.9413 121.475 80.9524C120.851 80.9524 120.327 81.0521 119.899 81.2468C119.472 81.44 119.125 81.7249 118.863 82.1002C118.598 82.4754 118.408 82.9424 118.293 83.5028C118.175 84.0601 118.118 84.7044 118.118 85.4327C118.118 86.1815 118.171 86.8369 118.277 87.3958ZM120.335 84.2295C120.355 83.8606 120.406 83.544 120.485 83.2796C120.564 83.0152 120.68 82.8094 120.834 82.6622C120.986 82.5149 121.199 82.4421 121.475 82.4421C121.918 82.4421 122.224 82.6732 122.393 83.1371C122.561 83.601 122.646 84.3672 122.646 85.4327C122.646 86.4982 122.561 87.2644 122.393 87.7283C122.224 88.1921 121.918 88.4248 121.475 88.4248C121.199 88.4248 120.986 88.3504 120.834 88.2032C120.68 88.056 120.564 87.8517 120.485 87.5874C120.406 87.323 120.355 87.0048 120.335 86.6359C120.313 86.2686 120.303 85.8665 120.303 85.4327C120.303 85.0005 120.313 84.5984 120.335 84.2295ZM126.102 89.6929H128.287V84.0886C128.287 83.5804 128.39 83.2115 128.596 82.9788C128.802 82.7461 129.079 82.6321 129.427 82.6321C129.732 82.6321 129.951 82.7255 130.084 82.9155C130.215 83.107 130.282 83.3793 130.282 83.7387V89.6929H132.467V84.0886C132.467 83.5804 132.569 83.2115 132.775 82.9788C132.981 82.7461 133.258 82.6321 133.606 82.6321C133.912 82.6321 134.13 82.7255 134.263 82.9155C134.395 83.107 134.461 83.3793 134.461 83.7387V89.6929H136.646V83.5028C136.646 82.678 136.473 82.0495 136.131 81.6094C135.788 81.1708 135.253 80.9524 134.525 80.9524C134.007 80.9524 133.56 81.0664 133.187 81.2927C132.812 81.5207 132.539 81.8595 132.372 82.3155H132.34C132.223 81.8706 131.993 81.5334 131.651 81.3007C131.308 81.0679 130.883 80.9524 130.377 80.9524C129.902 80.9524 129.492 81.0363 129.15 81.2057C128.806 81.3751 128.498 81.6553 128.224 82.0463H128.192V81.174H126.102V89.6929ZM138.185 92.4777H140.371V88.9014H140.403C140.634 89.2386 140.895 89.4903 141.185 89.6597C141.475 89.8307 141.826 89.913 142.238 89.913C143.135 89.913 143.796 89.5631 144.217 88.8602C144.638 88.1589 144.851 87.0158 144.851 85.4327C144.851 83.8495 144.638 82.7081 144.217 82.0052C143.796 81.3038 143.135 80.9524 142.238 80.9524C141.794 80.9524 141.424 81.0394 141.122 81.2136C140.821 81.3893 140.548 81.6759 140.308 82.0764H140.275V81.174H138.185V92.4777ZM140.583 83.335C140.726 82.8648 141.039 82.6321 141.527 82.6321C142 82.6321 142.309 82.8648 142.451 83.335C142.594 83.8052 142.665 84.5034 142.665 85.4327C142.665 86.362 142.594 87.0618 142.451 87.5304C142.309 88.0006 142 88.2349 141.527 88.2349C141.039 88.2349 140.726 88.0006 140.583 87.5304C140.441 87.0618 140.371 86.362 140.371 85.4327C140.371 84.5034 140.441 83.8052 140.583 83.335ZM150.562 89.6929H152.65V81.174H150.467V86.8259C150.467 87.7647 150.079 88.2349 149.311 88.2349C148.982 88.2349 148.746 88.1478 148.597 87.9752C148.45 87.7995 148.376 87.4908 148.376 87.0475V81.174H146.191V87.4908C146.191 88.3457 146.378 88.9647 146.753 89.3431C147.128 89.723 147.663 89.913 148.36 89.913C148.835 89.913 149.256 89.8149 149.626 89.6201C149.997 89.427 150.297 89.1167 150.53 88.694H150.562V89.6929ZM154.73 81.174H153.624V82.6622H154.73V87.5383C154.73 87.9705 154.756 88.3299 154.811 88.6148C154.862 88.9014 154.96 89.1294 155.102 89.3051C155.246 89.4776 155.447 89.6011 155.712 89.6755C155.975 89.7499 156.323 89.7864 156.758 89.7864C157.01 89.7864 157.249 89.7753 157.477 89.7563C157.703 89.7341 157.938 89.7119 158.183 89.6929V88.1731C158.107 88.1842 158.028 88.1905 157.946 88.1953C157.859 88.2 157.775 88.2032 157.691 88.2032C157.374 88.2032 157.165 88.132 157.065 87.9895C156.964 87.8486 156.915 87.6064 156.915 87.2691V82.6622H158.183V81.174H156.915V78.736H154.73V81.174ZM161.185 83.7862V83.5487C161.185 83.2115 161.267 82.9424 161.437 82.7413C161.606 82.5403 161.858 82.4421 162.196 82.4421C162.567 82.4421 162.828 82.5323 162.98 82.7176C163.132 82.9044 163.21 83.1577 163.21 83.4854C163.21 83.7704 163.146 83.9873 163.02 84.1345C162.895 84.2833 162.667 84.3989 162.34 84.4844L161.104 84.8168C160.724 84.9213 160.4 85.0416 160.13 85.1794C159.863 85.3171 159.64 85.4881 159.467 85.6939C159.291 85.8997 159.162 86.1483 159.078 86.438C158.992 86.7293 158.951 87.0744 158.951 87.4749C158.951 87.7599 158.987 88.0496 159.062 88.3378C159.136 88.6275 159.252 88.8887 159.41 89.1214C159.57 89.3542 159.779 89.5441 160.043 89.6929C160.306 89.8386 160.629 89.913 161.009 89.913C161.536 89.913 161.968 89.8386 162.301 89.6929C162.633 89.5441 162.926 89.2481 163.178 88.8048H163.21C163.241 88.952 163.275 89.104 163.313 89.256C163.349 89.4096 163.404 89.5536 163.479 89.6929H165.57C165.462 89.4396 165.391 89.2006 165.355 88.9789C165.317 88.7573 165.301 88.447 165.301 88.0465V83.5662C165.301 83.1846 165.26 82.8347 165.181 82.5134C165.103 82.1904 164.951 81.9149 164.729 81.6806C164.509 81.4495 164.193 81.269 163.789 81.1423C163.381 81.0157 162.855 80.9524 162.212 80.9524C161.801 80.9524 161.414 80.9983 161.05 81.0869C160.686 81.1772 160.368 81.326 160.099 81.5302C159.831 81.736 159.616 82.0083 159.458 82.3455C159.301 82.6827 159.22 83.0959 159.22 83.5804V83.7862H161.185ZM163.21 87.1108C163.21 87.3531 163.167 87.5573 163.083 87.7219C162.999 87.8834 162.89 88.018 162.76 88.124C162.625 88.2301 162.481 88.3077 162.323 88.3536C162.166 88.4011 162.011 88.4248 161.864 88.4248C161.568 88.4248 161.357 88.3109 161.231 88.0766C161.104 87.8454 161.041 87.5652 161.041 87.2375C161.041 86.8591 161.136 86.5567 161.326 86.3367C161.516 86.1134 161.832 85.9551 162.276 85.8601C162.412 85.8285 162.567 85.7778 162.736 85.7097C162.903 85.6417 163.062 85.5498 163.21 85.4327V87.1108ZM167.407 81.174H166.298V82.6622H167.407V87.5383C167.407 87.9705 167.432 88.3299 167.486 88.6148C167.538 88.9014 167.636 89.1294 167.78 89.3051C167.921 89.4776 168.124 89.6011 168.388 89.6755C168.651 89.7499 169.001 89.7864 169.433 89.7864C169.688 89.7864 169.925 89.7753 170.155 89.7563C170.381 89.7341 170.616 89.7119 170.858 89.6929V88.1731C170.783 88.1842 170.704 88.1905 170.62 88.1953C170.535 88.2 170.453 88.2032 170.367 88.2032C170.052 88.2032 169.841 88.132 169.742 87.9895C169.64 87.8486 169.593 87.6064 169.593 87.2691V82.6622H170.858V81.174H169.593V78.736H167.407V81.174ZM171.9 80.1307H174.083V78.261H171.9V80.1307ZM171.9 89.6929H174.083V81.174H171.9V89.6929ZM175.582 87.3958C175.69 87.9546 175.867 88.4248 176.122 88.8048C176.374 89.1848 176.719 89.4666 177.149 89.6518C177.583 89.837 178.126 89.9241 178.78 89.913C179.404 89.913 179.928 89.8149 180.355 89.6201C180.783 89.427 181.131 89.1404 181.392 88.7668C181.656 88.39 181.846 87.9246 181.964 87.3641C182.079 86.8053 182.136 86.1609 182.136 85.4327C182.136 84.6934 182.084 84.0427 181.978 83.4775C181.873 82.9123 181.694 82.4421 181.44 82.0606C181.186 81.6806 180.844 81.3988 180.412 81.2136C179.98 81.0284 179.435 80.9413 178.78 80.9524C178.158 80.9524 177.632 81.0521 177.206 81.2468C176.779 81.44 176.432 81.7249 176.168 82.1002C175.905 82.4754 175.715 82.9424 175.599 83.5028C175.482 84.0601 175.425 84.7044 175.425 85.4327C175.425 86.1815 175.477 86.8369 175.582 87.3958ZM177.642 84.2295C177.662 83.8606 177.711 83.544 177.79 83.2796C177.871 83.0152 177.987 82.8094 178.139 82.6622C178.292 82.5149 178.506 82.4421 178.78 82.4421C179.225 82.4421 179.53 82.6732 179.698 83.1371C179.868 83.601 179.953 84.3672 179.953 85.4327C179.953 86.4982 179.868 87.2644 179.698 87.7283C179.53 88.1921 179.225 88.4248 178.78 88.4248C178.506 88.4248 178.292 88.3504 178.139 88.2032C177.987 88.056 177.871 87.8517 177.79 87.5874C177.711 87.323 177.662 87.0048 177.642 86.6359C177.619 86.2686 177.61 85.8665 177.61 85.4327C177.61 85.0005 177.619 84.5984 177.642 84.2295ZM183.409 89.6929H185.592V84.0395C185.592 83.1023 185.978 82.6321 186.746 82.6321C187.077 82.6321 187.313 82.7176 187.459 82.8917C187.609 83.0659 187.682 83.3746 187.682 83.8195V89.6929H189.867V83.3746C189.867 82.5197 189.681 81.9023 189.305 81.5239C188.929 81.1423 188.396 80.9524 187.698 80.9524C187.223 80.9524 186.802 81.0521 186.431 81.2468C186.062 81.44 185.76 81.7487 185.529 82.173H185.497V81.174H183.409V89.6929Z" fill="white"/>
<path d="M112.217 62.1075H113.182C113.614 62.1075 113.961 62.1899 114.219 62.3529C114.477 62.516 114.674 62.7614 114.805 63.0891C114.936 63.4168 115.023 63.8205 115.066 64.3002C115.109 64.7799 115.13 65.3419 115.13 65.9863C115.13 66.7557 115.106 67.4 115.058 67.9177C115.011 68.4354 114.916 68.8518 114.773 69.1684C114.631 69.485 114.436 69.7098 114.188 69.8476C113.939 69.9853 113.621 70.0534 113.23 70.0534H112.217V62.1075ZM109.937 71.7331H113.531C114.29 71.7331 114.919 71.6175 115.414 71.3848C115.91 71.1521 116.306 70.799 116.602 70.3241C116.898 69.8476 117.105 69.2476 117.227 68.5193C117.349 67.791 117.409 66.9251 117.409 65.9229C117.409 65.0886 117.362 64.335 117.267 63.659C117.172 62.9814 116.99 62.4052 116.721 61.9255C116.451 61.4458 116.075 61.0737 115.589 60.8157C115.103 60.5592 114.465 60.4294 113.673 60.4294H109.937V71.7331ZM125.099 67.8053V67.3161C125.099 66.6623 125.056 66.0686 124.972 65.5351C124.886 65.0015 124.728 64.5487 124.497 64.172C124.264 63.7983 123.944 63.5086 123.539 63.3028C123.132 63.097 122.613 62.9925 121.98 62.9925C121.24 62.9925 120.65 63.1144 120.207 63.3582C119.763 63.6004 119.423 63.9282 119.186 64.3398C118.948 64.7514 118.79 65.2216 118.711 65.7488C118.631 66.276 118.592 66.8253 118.592 67.3953C118.592 67.9224 118.616 68.4576 118.663 69.0022C118.711 69.5452 118.839 70.036 119.051 70.4745C119.262 70.9114 119.589 71.2692 120.033 71.5431C120.476 71.817 121.093 71.9532 121.885 71.9532C122.93 71.9532 123.694 71.6888 124.18 71.1552C124.665 70.6217 124.929 69.8602 124.972 68.866H123.009C122.946 69.4059 122.828 69.8064 122.661 70.0708C122.491 70.3352 122.222 70.4666 121.853 70.4666C121.652 70.4666 121.483 70.4112 121.347 70.3003C121.209 70.1895 121.098 70.0407 121.014 69.8555C120.929 69.6718 120.868 69.4597 120.832 69.2238C120.794 68.9847 120.777 68.7409 120.777 68.4876V67.8053H125.099ZM120.777 66.5087V66.1762C120.777 65.9752 120.794 65.7757 120.832 65.5746C120.868 65.3736 120.929 65.1915 121.014 65.0269C121.098 64.8654 121.212 64.7324 121.354 64.6311C121.497 64.5329 121.679 64.4823 121.901 64.4823C122.122 64.4823 122.304 64.5266 122.447 64.6168C122.589 64.7055 122.7 64.8369 122.779 65.0126C122.858 65.1868 122.914 65.3973 122.946 65.6459C122.977 65.8928 122.998 66.181 123.009 66.5087H120.777ZM126.01 68.9467V69.2475C126.01 69.6576 126.058 70.0312 126.153 70.3637C126.248 70.6961 126.414 70.9811 126.652 71.2186C126.889 71.456 127.207 71.6365 127.609 71.7632C128.01 71.8898 128.521 71.9532 129.145 71.9532C129.598 71.9532 130.021 71.8977 130.412 71.7885C130.801 71.6777 131.137 71.5115 131.417 71.2898C131.696 71.0682 131.916 70.788 132.074 70.4492C132.232 70.1119 132.311 69.7209 132.311 69.2792C132.311 68.6349 132.169 68.1267 131.884 67.7515C131.599 67.3763 131.113 67.0723 130.427 66.8412L129.113 66.3979C128.743 66.2807 128.493 66.1398 128.361 65.9704C128.228 65.801 128.164 65.611 128.164 65.4005C128.164 65.0934 128.266 64.8654 128.472 64.7102C128.678 64.5582 128.917 64.4823 129.193 64.4823C129.55 64.4823 129.802 64.5852 129.945 64.791C130.087 64.9968 130.158 65.3213 130.158 65.763H132.121V65.4163C132.121 64.6437 131.884 64.0485 131.409 63.6274C130.934 63.2047 130.2 62.9925 129.208 62.9925C128.648 62.9925 128.171 63.0606 127.776 63.1999C127.38 63.3376 127.055 63.5197 126.802 63.754C126.549 63.9851 126.364 64.2574 126.248 64.5677C126.131 64.8812 126.074 65.2105 126.074 65.5572C126.074 66.1588 126.226 66.6543 126.533 67.0391C126.838 67.4238 127.293 67.723 127.894 67.9319L129.43 68.4876C129.641 68.5715 129.826 68.6855 129.984 68.828C130.143 68.9705 130.222 69.1795 130.222 69.4518C130.222 69.789 130.12 70.0423 129.921 70.2133C129.72 70.3811 129.451 70.4666 129.113 70.4666C128.743 70.4666 128.461 70.3526 128.266 70.1262C128.07 69.8998 127.974 69.6006 127.974 69.2317V68.9467H126.01ZM133.556 62.1709H135.741V60.3027H133.556V62.1709ZM133.556 71.7331H135.741V63.2157H133.556V71.7331ZM139.38 66.2934C139.406 65.8976 139.461 65.5826 139.546 65.3451C139.63 65.106 139.746 64.9366 139.895 64.829C140.044 64.7245 140.238 64.6722 140.48 64.6722C140.913 64.6722 141.21 64.8891 141.375 65.3213C141.538 65.7519 141.622 66.4865 141.622 67.5219C141.622 67.8813 141.601 68.2106 141.565 68.5114C141.529 68.8122 141.465 69.0687 141.375 69.2792C141.285 69.4898 141.164 69.6544 141.011 69.7763C140.857 69.8998 140.666 69.96 140.435 69.96C140.2 69.96 140.013 69.8998 139.871 69.7763C139.728 69.6544 139.618 69.4929 139.538 69.2871C139.459 69.0813 139.406 68.847 139.38 68.5826C139.353 68.3182 139.341 68.0396 139.341 67.742C139.341 67.1736 139.353 66.6892 139.38 66.2934ZM141.622 63.2157V64.1656H141.59C141.377 63.7208 141.107 63.4168 140.781 63.2458C140.454 63.078 140.139 62.9925 139.831 62.9925C139.239 62.9925 138.767 63.1239 138.414 63.3883C138.06 63.6527 137.791 63.9946 137.607 64.411C137.422 64.8274 137.3 65.2928 137.243 65.8121C137.184 66.3298 137.156 66.8364 137.156 67.3319C137.156 68.8834 137.374 69.9869 137.813 70.6471C138.25 71.3072 138.902 71.6365 139.768 71.6365C140.116 71.6365 140.45 71.5431 140.773 71.3531C141.096 71.1616 141.367 70.9083 141.59 70.5932H141.622V71.7173C141.622 72.159 141.532 72.5278 141.351 72.816C141.171 73.1073 140.86 73.2529 140.417 73.2529C140.279 73.2529 140.15 73.2323 140.029 73.1896C139.909 73.1453 139.793 73.0883 139.689 73.0139C139.467 72.8571 139.356 72.6402 139.356 72.3664H137.267C137.267 73.0946 137.517 73.6566 138.019 74.0524C138.519 74.4482 139.235 74.6461 140.164 74.6461C141.44 74.6461 142.352 74.3738 142.895 73.8308C143.439 73.2862 143.71 72.4455 143.71 71.3041V63.2157H141.622ZM145.3 71.7331H147.484V66.0812C147.484 65.1424 147.869 64.6722 148.64 64.6722C148.966 64.6722 149.204 64.7593 149.352 64.9335C149.5 65.106 149.576 65.4163 149.576 65.8596V71.7331H151.759V65.4163C151.759 64.5614 151.57 63.944 151.197 63.564C150.822 63.1825 150.286 62.9925 149.59 62.9925C149.117 62.9925 148.692 63.0923 148.325 63.287C147.954 63.4817 147.652 63.7904 147.421 64.2131H147.389V63.2157H145.3V71.7331Z" fill="white"/>
<path d="M98.3667 89.7157V68.5869H91.0414C90.424 64.4296 88.635 61.2728 85.673 59.1165C82.7077 56.9634 78.9541 55.8837 74.4136 55.8837C70.9497 55.8837 68.0035 56.5771 65.5797 57.9624C63.1543 59.3476 61.1722 61.1952 59.6318 63.5066C58.0914 65.8164 56.9753 68.4334 56.2834 71.359C55.59 74.2847 55.2449 77.2879 55.2449 80.3656C55.2449 83.4464 55.59 86.4481 56.2834 89.3721C56.9753 92.2994 58.0914 94.9148 59.6318 97.2246C61.1722 99.5344 63.1543 101.382 65.5797 102.767C68.0035 104.154 70.9497 104.847 74.4136 104.847C79.494 104.847 83.4376 103.5 86.2492 100.804C89.0593 98.1111 90.6567 94.4905 91.0414 89.7157H98.3667ZM88.2123 39.487C91.9042 40.6427 95.289 42.2417 98.3667 44.2808V0H39.2314V36.5803C40.0039 36.1893 40.8462 35.9012 41.7612 35.7159C42.8789 35.4895 44.0204 35.3771 45.1919 35.3771C46.2273 35.3771 47.2769 35.45 48.3408 35.5956C49.4031 35.7428 50.3735 36.0294 51.2506 36.4537C52.1261 36.878 52.8433 37.4764 53.4021 38.2474C53.961 39.0184 54.2396 40.0158 54.2396 41.238V42.5805C54.2396 42.5805 54.2633 42.571 54.2459 42.5789C54.523 42.4348 56.5114 41.3678 57.8998 40.7567C62.9802 38.5244 68.6399 37.4083 74.8743 37.4083C79.3388 37.4083 83.7843 38.1002 88.2123 39.487ZM36.6524 97.1676C35.2877 93.4867 34.4091 89.6001 34.0101 85.5124C34.0117 85.5251 34.0133 85.5362 34.0133 85.5472C32.9985 86.2644 31.884 86.8138 30.6744 87.1953C28.7177 87.8096 26.7229 88.1183 24.6838 88.1183C23.1118 88.1183 21.6442 87.9172 20.2843 87.5151C18.9243 87.1114 17.7354 86.5051 16.7158 85.6976C15.6963 84.8887 14.9 83.8707 14.3269 82.639C13.7522 81.4057 13.4656 79.9397 13.4656 78.2394C13.4656 76.3713 13.7838 74.8309 14.4219 73.6198C15.0599 72.4087 15.9084 71.4413 16.9707 70.7194C18.0314 69.9975 19.233 69.4529 20.5724 69.0935C21.9101 68.731 23.2812 68.4476 24.6838 68.2339C26.0849 68.0217 27.4227 67.8523 28.6987 67.7241C29.9715 67.5975 31.1082 67.4059 32.1072 67.1478C33.1062 66.8945 33.9025 66.5241 34.4977 66.0349C35.093 65.5473 35.3891 64.8333 35.3891 63.9008C35.3891 62.9208 35.2307 62.1467 34.9125 61.5736C34.5927 61.0005 34.1685 60.5508 33.6381 60.2342C33.1062 59.916 32.4903 59.7039 31.789 59.5978C31.0892 59.4901 30.3325 59.4379 29.5267 59.4379C27.7836 59.4379 26.3936 59.8194 25.3503 60.5857C24.3102 61.3503 23.7054 62.6248 23.536 64.4106H14.4852C14.5881 62.7008 14.9522 61.2253 15.5776 59.9841C15.5744 59.9888 15.5712 59.9936 15.5696 59.9983C15.3907 60.0031 15.2103 60.0062 15.0282 60.0062C11.7891 60.0062 8.979 59.3746 6.59161 58.1112C5.66547 57.6236 4.80266 57.0679 4 56.4505V107.64H42.2932C39.958 104.509 38.0772 101.018 36.6524 97.1676ZM32.2038 81.173C32.8291 80.7915 33.35 80.3624 33.7663 79.8843V80.0584C33.7822 77.1739 34.0196 74.3844 34.4819 71.6883C34.3157 71.7643 34.1415 71.8371 33.9563 71.8957C33.3832 72.0889 32.7658 72.2488 32.1072 72.377C31.4486 72.5036 30.7473 72.6113 30.0048 72.6952C29.2607 72.7807 28.5483 72.8836 27.8691 73.0134C27.1456 73.1401 26.468 73.3126 25.83 73.5248C25.192 73.7385 24.6284 74.0235 24.1408 74.3844C23.6516 74.7454 23.259 75.2124 22.9629 75.7839C22.6637 76.3602 22.5165 77.0505 22.5165 77.8579C22.5165 78.708 22.6637 79.3999 22.9629 79.9302C23.259 80.4621 23.6627 80.8849 24.1725 81.2015C24.6838 81.5213 25.2775 81.7461 25.9567 81.8727C26.6358 82.001 27.3372 82.0643 28.0591 82.0643C29.8449 82.0643 31.2254 81.7683 32.2038 81.173ZM27.4607 42.5536C27.79 40.9071 27.953 39.2068 27.953 37.4495C27.953 35.7492 27.79 34.0742 27.4607 32.4277C27.1314 30.7812 26.5678 29.3406 25.773 28.1057C24.9767 26.8709 23.9334 25.8703 22.6447 25.1009C21.3545 24.3331 19.7776 23.9484 17.9111 23.9484C15.9892 23.9484 14.3696 24.3331 13.054 25.1009C11.7368 25.8703 10.6777 26.8851 9.88297 28.1469C9.08823 29.4102 8.51197 30.8509 8.15576 32.4689C7.79797 34.0884 7.62066 35.7761 7.62066 37.5318C7.62066 39.1783 7.81222 40.8248 8.19692 42.4712C8.58004 44.1177 9.19747 45.5869 10.0492 46.8756C10.8994 48.1658 11.9696 49.2091 13.2598 50.0039C14.5485 50.8002 16.1 51.1976 17.9111 51.1976C19.8315 51.1976 21.4368 50.8145 22.727 50.045C24.0157 49.2772 25.0448 48.2482 25.8142 46.9579C26.582 45.6692 27.1314 44.2 27.4607 42.5536ZM27.3783 21.4786H27.543V0H4V18.5973C4.79157 18.0036 5.64014 17.4685 6.55045 16.992C8.90934 15.7571 11.6545 15.1397 14.7828 15.1397C17.3064 15.1397 19.7064 15.6748 21.9861 16.745C24.2627 17.8152 26.0612 19.3936 27.3783 21.4786ZM48.021 43.2897C48.393 42.9858 48.5783 42.5393 48.5783 41.9551C48.5783 41.344 48.4801 40.858 48.2806 40.5002C48.0812 40.1408 47.8152 39.8622 47.4827 39.6627C47.1503 39.4632 46.7656 39.3303 46.327 39.2638C45.8885 39.1973 45.4151 39.164 44.9117 39.164C43.8209 39.164 42.9502 39.4031 42.2995 39.8812C41.6488 40.3609 41.2704 41.1572 41.1644 42.2733H39.2314V45.2275C39.2583 45.2196 39.2836 45.2117 39.3105 45.2038C40.148 44.9774 41.0045 44.7985 41.8815 44.6655C42.7586 44.5325 43.5961 44.4264 44.394 44.3473C45.1919 44.2665 45.9012 44.1478 46.5249 43.9879C47.1503 43.828 47.6474 43.5953 48.021 43.2897ZM42.2061 53.2098C43.0467 52.0715 43.9476 50.9807 44.9085 49.9374C45.9819 48.7722 47.1218 47.6814 48.3297 46.665C48.3471 46.6508 48.363 46.6365 48.3804 46.6223C48.6669 46.3832 48.431 46.5779 48.4199 46.5859C48.4152 46.5906 48.4104 46.5938 48.4041 46.5969C48.1999 46.7457 47.9577 46.8661 47.6822 46.9579C47.3228 47.0782 46.9381 47.1779 46.5249 47.2571C46.1149 47.3363 45.6748 47.4028 45.2109 47.4566C44.7455 47.5104 44.299 47.5753 43.8747 47.6561C43.4219 47.7352 42.9977 47.8413 42.6003 47.9743C42.2013 48.1088 41.8483 48.2877 41.5428 48.5141C41.2372 48.7389 40.9902 49.0302 40.805 49.3896C40.6198 49.749 40.5264 50.1812 40.5264 50.6846C40.5264 51.2166 40.6198 51.6488 40.805 51.9812C40.9902 52.3137 41.2435 52.5797 41.5633 52.7791C41.7786 52.9137 42.0209 53.0214 42.2852 53.1005C42.2583 53.1369 42.233 53.1733 42.2061 53.2098Z" fill="black"/>
<path d="M27.9546 37.4511C27.9546 39.2084 27.7915 40.9087 27.4622 42.5551C27.1329 44.2 26.5836 45.6708 25.8158 46.9595C25.0448 48.2482 24.0157 49.2772 22.7286 50.0466C21.4384 50.816 19.8315 51.1991 17.9127 51.1991C16.1 51.1991 14.5485 50.8018 13.2614 50.0039C11.9711 49.2091 10.8994 48.1674 10.0508 46.8771C9.19905 45.5885 8.58004 44.1193 8.19851 42.4728C7.8138 40.8248 7.62224 39.1783 7.62224 37.5334C7.62224 35.7777 7.79797 34.09 8.15576 32.4705C8.51197 30.8525 9.08982 29.4118 9.88456 28.1485C10.6793 26.8867 11.7384 25.8719 13.0556 25.1009C14.3712 24.3331 15.9908 23.9483 17.9127 23.9483C19.7776 23.9483 21.3545 24.3331 22.6463 25.1009C23.935 25.8719 24.9767 26.8724 25.773 28.1073C26.5693 29.3421 27.1329 30.7828 27.4622 32.4293C27.7915 34.0742 27.9546 35.7492 27.9546 37.4511ZM37.0593 46.2233C37.702 45.7832 38.4271 45.4523 39.2314 45.2291V42.2749H35.503C35.5838 40.9482 35.9162 39.8432 36.5004 38.9677C37.083 38.0875 37.8303 37.3861 38.7311 36.8542C38.8957 36.7576 39.062 36.6674 39.2314 36.5803V0H27.543V21.4802H27.3783C26.0612 19.3936 24.2643 17.8168 21.9877 16.7466C19.7096 15.6764 17.3079 15.1397 14.7828 15.1397C11.6545 15.1397 8.90934 15.7571 6.55203 16.9936C5.64172 17.4701 4.79157 18.0036 4 18.5973V56.4536C4.80424 57.0695 5.66705 57.6252 6.5932 58.1128C8.979 59.3746 11.7891 60.0078 15.0298 60.0078C15.2103 60.0078 15.3923 60.0062 15.5712 60.0015C15.7264 59.6928 15.8942 59.3999 16.0778 59.1197C17.0151 57.717 18.204 56.593 19.6494 55.7428C21.0948 54.8942 22.7096 54.2863 24.4938 53.9253C26.278 53.5644 28.1034 53.3855 29.9747 53.3855C31.6323 53.3855 33.3088 53.5011 35.0091 53.7354C35.1627 53.7559 35.3147 53.7797 35.465 53.805C35.4461 53.7623 35.4255 53.7211 35.4033 53.6784C35.0455 52.9058 34.865 51.9907 34.865 50.9253C34.865 49.7585 35.0645 48.7943 35.4635 48.0376C35.8624 47.2793 36.3928 46.6729 37.0593 46.2233ZM56.285 89.3737C55.5932 86.4496 55.2465 83.4464 55.2465 80.3687C55.2465 77.2895 55.5932 74.2863 56.285 71.3606C56.9753 68.4349 58.0914 65.818 59.6334 63.5082C61.1738 61.1983 63.1559 59.3508 65.5797 57.964C68.0066 56.5787 70.9497 55.8869 74.4136 55.8869C78.9557 55.8869 82.7093 56.965 85.6746 59.1181C88.635 61.2743 90.4272 64.4311 91.0414 68.5885H98.3667V44.2839C95.289 42.2433 91.9074 40.6443 88.2139 39.4886C83.7843 38.1017 79.342 37.4099 74.8743 37.4099C68.6399 37.4099 62.9817 38.5244 57.903 40.7583C52.8195 42.9921 48.488 46.0523 44.9101 49.9374C41.329 53.8256 38.5759 58.3693 36.6524 63.5652C34.7289 68.7611 33.7663 74.3623 33.7663 80.3687C33.7663 86.3736 34.7289 91.9732 36.6524 97.1692C38.0788 101.021 39.9596 104.509 42.2932 107.642H98.3667V89.7157H91.0414C90.6583 94.492 89.0593 98.1143 86.2508 100.806C83.4392 103.502 79.494 104.849 74.4136 104.849C70.9497 104.849 68.0066 104.156 65.5797 102.769C63.1559 101.384 61.1738 99.536 59.6334 97.2261C58.0914 94.9163 56.9753 92.301 56.285 89.3737Z" fill="white"/>
<path d="M53.3993 38.2462C52.8405 37.4752 52.1233 36.8768 51.2494 36.4525C50.3708 36.0282 49.4019 35.7417 48.3396 35.5945C47.2741 35.4488 46.2261 35.376 45.1891 35.376C44.0192 35.376 42.8777 35.4884 41.7585 35.7148C40.6423 35.9412 39.6355 36.3195 38.7283 36.8515C37.8275 37.3834 37.0803 38.0863 36.4977 38.9634C35.9135 39.8405 35.581 40.9439 35.5003 42.2722H41.1616C41.2677 41.1561 41.6476 40.3597 42.2983 39.88C42.9474 39.4019 43.8197 39.1629 44.9105 39.1629C45.414 39.1629 45.8857 39.1961 46.3258 39.2626C46.7644 39.3291 47.1491 39.4621 47.4815 39.6616C47.814 39.861 48.08 40.1397 48.2795 40.4991C48.4789 40.8569 48.5771 41.3429 48.5771 41.954C48.5771 42.5382 48.3903 42.9846 48.0198 43.2886C47.6462 43.5941 47.1491 43.8268 46.5237 43.9867C45.9 44.1466 45.1891 44.2654 44.3928 44.3461C43.5949 44.4253 42.7559 44.5313 41.8804 44.6643C41.0017 44.7973 40.1452 44.9762 39.3093 45.2026C38.4719 45.429 37.7214 45.7678 37.0565 46.219C36.39 46.6718 35.8597 47.2765 35.4607 48.0333C35.0618 48.79 34.8623 49.7542 34.8623 50.9225C34.8623 51.9864 35.0428 52.9031 35.4005 53.6741C35.4227 53.7168 35.4433 53.7595 35.4623 53.8023C36.9837 54.0508 38.3832 54.4846 39.6592 55.1021C39.9743 55.2556 40.2735 55.4234 40.5648 55.6039C40.5347 55.6498 40.503 55.6989 40.4745 55.7464C41.0445 54.8377 41.6476 53.9543 42.2841 53.0994C42.0197 53.0202 41.7775 52.9126 41.5606 52.778C41.2424 52.5785 40.9891 52.3125 40.8022 51.9801C40.6186 51.6476 40.5252 51.2154 40.5252 50.6835C40.5252 50.18 40.6186 49.7478 40.8022 49.3885C40.9891 49.0291 41.2344 48.7378 41.5416 48.5114C41.8471 48.2866 42.2002 48.1077 42.5991 47.9731C42.9965 47.8401 43.4208 47.7341 43.872 47.6549C44.2963 47.5742 44.7443 47.5093 45.2097 47.4554C45.6736 47.4016 46.1121 47.3351 46.5237 47.256C46.9354 47.1768 47.3216 47.0771 47.681 46.9567C47.9786 46.857 48.2367 46.7256 48.4504 46.561C50.2331 45.0728 52.1645 43.7461 54.2384 42.5793V41.2368C54.2384 40.0146 53.9598 39.0172 53.3993 38.2462Z" fill="#909698"/>
<path d="M33.7663 80.367C33.7663 80.2056 33.7679 80.0457 33.7679 79.8858C33.3515 80.3639 32.8307 80.7929 32.2053 81.1744C31.2269 81.7697 29.8464 82.0658 28.0606 82.0658C27.3387 82.0658 26.6374 82.0024 25.9582 81.8742C25.2791 81.7476 24.6854 81.5227 24.174 81.2045C23.6642 80.8863 23.2605 80.4636 22.9645 79.9317C22.6653 79.4013 22.518 78.7095 22.518 77.8593C22.518 77.0519 22.6653 76.3617 22.9645 75.7854C23.2605 75.2139 23.6532 74.7468 24.1424 74.3859C24.63 74.0249 25.1936 73.74 25.8316 73.5262C26.4696 73.3141 27.1472 73.1415 27.8707 73.0149C28.5498 72.8866 29.2623 72.7822 30.0063 72.6967C30.7488 72.6128 31.4502 72.5051 32.1088 72.3785C32.7673 72.2502 33.3848 72.0903 33.9579 71.8988C34.1431 71.8386 34.3172 71.7674 34.4835 71.6898C34.9647 68.8797 35.6867 66.1709 36.6524 63.565C37.7083 60.7138 39.0129 58.062 40.5659 55.6065C40.2778 55.4261 39.9754 55.2582 39.662 55.1047C38.2593 54.4271 36.7078 53.9696 35.0091 53.7352C33.3088 53.5025 31.6306 53.3838 29.9731 53.3838C28.105 53.3838 26.278 53.5659 24.4938 53.9268C22.7096 54.2878 21.0932 54.8941 19.6494 55.7427C18.204 56.5913 17.015 57.7185 16.0794 59.1211C15.1453 60.5222 14.6134 62.2874 14.4867 64.412H23.5376C23.707 62.6262 24.3118 61.3518 25.3519 60.5871C26.3952 59.8209 27.7852 59.4393 29.5282 59.4393C30.334 59.4393 31.0908 59.4916 31.7905 59.5992C32.4919 59.7053 33.1077 59.9175 33.6397 60.2357C34.17 60.5539 34.5943 61.0019 34.9141 61.575C35.2323 62.1481 35.3906 62.9223 35.3906 63.9023C35.3906 64.8347 35.0946 65.5487 34.4993 66.0363C33.904 66.5255 33.1077 66.896 32.1088 67.1509C31.1098 67.4074 29.9731 67.5989 28.7002 67.7256C27.4242 67.8538 26.0865 68.0232 24.6854 68.2353C23.2827 68.4491 21.9117 68.734 20.5739 69.095C19.2346 69.4544 18.033 69.999 16.9723 70.7209C15.91 71.4428 15.0614 72.4101 14.4234 73.6212C13.7854 74.8323 13.4672 76.3727 13.4672 78.2409C13.4672 79.9412 13.7537 81.4072 14.3284 82.6404C14.9015 83.8721 15.6978 84.8901 16.7174 85.6991C17.7369 86.5065 18.9259 87.1128 20.2858 87.5166C21.6457 87.9187 23.1133 88.1197 24.6854 88.1197C26.7245 88.1197 28.7192 87.811 30.676 87.1968C31.8855 86.8152 33.0001 86.2659 34.0149 85.5487C33.8502 83.8563 33.7663 82.1291 33.7663 80.367Z" fill="#5C6063"/>
</g>
<defs>
<filter id="filter0_d_1_6" x="0" y="0" width="508" height="115.642" filterUnits="userSpaceOnUse" color-interpolation-filters="sRGB">
<feFlood flood-opacity="0" result="BackgroundImageFix"/>
<feColorMatrix in="SourceAlpha" type="matrix" values="0 0 0 0 0 0 0 0 0 0 0 0 0 0 0 0 0 0 127 0" result="hardAlpha"/>
<feOffset dy="4"/>
<feGaussianBlur stdDeviation="2"/>
<feComposite in2="hardAlpha" operator="out"/>
<feColorMatrix type="matrix" values="0 0 0 0 0 0 0 0 0 0 0 0 0 0 0 0 0 0 0.25 0"/>
<feBlend mode="normal" in2="BackgroundImageFix" result="effect1_dropShadow_1_6"/>
<feBlend mode="normal" in="SourceGraphic" in2="effect1_dropShadow_1_6" result="shape"/>
</filter>
</defs>
</svg>
